<svg width="80" height="80" viewBox="0 0 80 80" fill="none" xmlns="http://www.w3.org/2000/svg">
<path d="M16.6667 18.3334C16.6667 15.2392 17.8958 12.2717 20.0838 10.0838C22.2717 7.89585 25.2391 6.66669 28.3333 6.66669H40V30H28.3333C25.2391 30 22.2717 28.7709 20.0838 26.5829C17.8958 24.395 16.6667 21.4275 16.6667 18.3334Z" stroke="white" stroke-width="2" stroke-linecap="round" stroke-linejoin="round"/>
<path d="M40 6.66669H51.6667C53.1988 6.66669 54.7158 6.96845 56.1313 7.55476C57.5468 8.14106 58.8329 9.00042 59.9163 10.0838C60.9996 11.1671 61.859 12.4532 62.4453 13.8687C63.0316 15.2842 63.3333 16.8013 63.3333 18.3334C63.3333 19.8654 63.0316 21.3825 62.4453 22.798C61.859 24.2135 60.9996 25.4996 59.9163 26.5829C58.8329 27.6663 57.5468 28.5256 56.1313 29.1119C54.7158 29.6983 53.1988 30 51.6667 30H40V6.66669Z" stroke="white" stroke-width="2" stroke-linecap="round" stroke-linejoin="round"/>
<path d="M40 41.6667C40 40.1346 40.3018 38.6175 40.8881 37.202C41.4744 35.7866 42.3337 34.5004 43.4171 33.4171C44.5004 32.3337 45.7866 31.4744 47.202 30.8881C48.6175 30.3018 50.1346 30 51.6667 30C53.1988 30 54.7158 30.3018 56.1313 30.8881C57.5468 31.4744 58.8329 32.3337 59.9163 33.4171C60.9996 34.5004 61.859 35.7866 62.4453 37.202C63.0316 38.6175 63.3333 40.1346 63.3333 41.6667C63.3333 43.1988 63.0316 44.7158 62.4453 46.1313C61.859 47.5468 60.9996 48.8329 59.9163 49.9162C58.8329 50.9996 57.5468 51.859 56.1313 52.4453C54.7158 53.0316 53.1988 53.3333 51.6667 53.3333C50.1346 53.3333 48.6175 53.0316 47.202 52.4453C45.7866 51.859 44.5004 50.9996 43.4171 49.9162C42.3337 48.8329 41.4744 47.5468 40.8881 46.1313C40.3018 44.7158 40 43.1988 40 41.6667V41.6667Z" stroke="white" stroke-width="2" stroke-linecap="round" stroke-linejoin="round"/>
<path d="M16.6667 65C16.6667 61.9058 17.8958 58.9384 20.0838 56.7505C22.2717 54.5625 25.2391 53.3334 28.3333 53.3334H40V65C40 68.0942 38.7708 71.0617 36.5829 73.2496C34.395 75.4375 31.4275 76.6667 28.3333 76.6667C25.2391 76.6667 22.2717 75.4375 20.0838 73.2496C17.8958 71.0617 16.6667 68.0942 16.6667 65Z" stroke="white" stroke-width="2" stroke-linecap="round" stroke-linejoin="round"/>
<path d="M16.6667 41.6667C16.6667 38.5725 17.8958 35.605 20.0838 33.4171C22.2717 31.2292 25.2391 30 28.3333 30H40V53.3333H28.3333C25.2391 53.3333 22.2717 52.1042 20.0838 49.9162C17.8958 47.7283 16.6667 44.7609 16.6667 41.6667Z" stroke="white" stroke-width="2" stroke-linecap="round" stroke-linejoin="round"/>
</svg>
